<svg width="18" height="20" viewBox="0 0 18 20" fill="none" xmlns="http://www.w3.org/2000/svg">
<path d="M17.1902 12.06L16.0602 10.18C15.8102 9.77 15.5902 8.98 15.5902 8.5V6.63C15.5902 3 12.6402 0.05 9.0202 0.05C5.3902 0.06 2.4402 3 2.4402 6.63V8.49C2.4402 8.97 2.2202 9.76 1.9802 10.17L0.850203 12.05C0.420203 12.78 0.320203 13.61 0.590203 14.33C0.860203 15.06 1.4702 15.64 2.2702 15.9C3.3502 16.26 4.4402 16.52 5.5502 16.71C5.6602 16.73 5.7702 16.74 5.8802 16.76C6.0202 16.78 6.1702 16.8 6.3202 16.82C6.5802 16.86 6.8402 16.89 7.1102 16.91C7.7402 16.97 8.3802 17 9.0202 17C9.6502 17 10.2802 16.97 10.9002 16.91C11.1302 16.89 11.3602 16.87 11.5802 16.84C11.7602 16.82 11.9402 16.8 12.1202 16.77C12.2302 16.76 12.3402 16.74 12.4502 16.72C13.5702 16.54 14.6802 16.26 15.7602 15.9C16.5302 15.64 17.1202 15.06 17.4002 14.32C17.6802 13.57 17.6002 12.75 17.1902 12.06ZM9.7502 8C9.7502 8.42 9.4102 8.76 8.9902 8.76C8.5702 8.76 8.2302 8.42 8.2302 8V4.9C8.2302 4.48 8.5702 4.14 8.9902 4.14C9.4102 4.14 9.7502 4.48 9.7502 4.9V8Z" fill="#42A73D"/>
<path d="M11.8302 18.01C11.4102 19.17 10.3002 20 9.00018 20C8.21018 20 7.43018 19.68 6.88018 19.11C6.56018 18.81 6.32018 18.41 6.18018 18C6.31018 18.02 6.44018 18.03 6.58018 18.05C6.81018 18.08 7.05018 18.11 7.29018 18.13C7.86018 18.18 8.44018 18.21 9.02018 18.21C9.59018 18.21 10.1602 18.18 10.7202 18.13C10.9302 18.11 11.1402 18.1 11.3402 18.07C11.5002 18.05 11.6602 18.03 11.8302 18.01Z" fill="#42A73D"/>
</svg>
