<svg width="20" height="20" viewBox="0 0 20 20" fill="none" xmlns="http://www.w3.org/2000/svg">
<path d="M17.9166 12.9166C18.15 12.9166 18.3333 13.1 18.3333 13.3333V14.1666C18.3333 15.55 17.2166 16.6666 15.8333 16.6666C15.8333 15.2916 14.7083 14.1666 13.3333 14.1666C11.9583 14.1666 10.8333 15.2916 10.8333 16.6666H9.16663C9.16663 15.2916 8.04163 14.1666 6.66663 14.1666C5.29163 14.1666 4.16663 15.2916 4.16663 16.6666C2.78329 16.6666 1.66663 15.55 1.66663 14.1666V12.5C1.66663 12.0416 2.04163 11.6666 2.49996 11.6666H10.4166C11.5666 11.6666 12.5 10.7333 12.5 9.58329V4.99996C12.5 4.54163 12.875 4.16663 13.3333 4.16663H14.0333C14.6333 4.16663 15.1833 4.49163 15.4833 5.00829L16.0166 5.94163C16.0916 6.07496 15.9916 6.24996 15.8333 6.24996C14.6833 6.24996 13.75 7.18329 13.75 8.33329V10.8333C13.75 11.9833 14.6833 12.9166 15.8333 12.9166H17.9166Z" fill="#DBDBDB"/>
<path d="M6.66667 18.3333C7.58714 18.3333 8.33333 17.5871 8.33333 16.6667C8.33333 15.7462 7.58714 15 6.66667 15C5.74619 15 5 15.7462 5 16.6667C5 17.5871 5.74619 18.3333 6.66667 18.3333Z" fill="#DBDBDB"/>
<path d="M13.3333 18.3333C14.2538 18.3333 15 17.5871 15 16.6667C15 15.7462 14.2538 15 13.3333 15C12.4128 15 11.6666 15.7462 11.6666 16.6667C11.6666 17.5871 12.4128 18.3333 13.3333 18.3333Z" fill="#DBDBDB"/>
<path d="M18.3333 10.4417V11.6667H15.8333C15.375 11.6667 15 11.2917 15 10.8333V8.33333C15 7.875 15.375 7.5 15.8333 7.5H16.9083L18.1167 9.61667C18.2583 9.86667 18.3333 10.15 18.3333 10.4417Z" fill="#DBDBDB"/>
<path d="M10.9001 1.66663H4.74175C3.25008 1.66663 2.00008 2.73329 1.72508 4.14996H5.36675C5.68341 4.14996 5.93341 4.40829 5.93341 4.72496C5.93341 5.04163 5.68341 5.29163 5.36675 5.29163H1.66675V6.44163H3.83341C4.15008 6.44163 4.40841 6.69996 4.40841 7.01663C4.40841 7.33329 4.15008 7.58329 3.83341 7.58329H1.66675V8.73329H2.30841C2.62508 8.73329 2.88341 8.99163 2.88341 9.30829C2.88341 9.62496 2.62508 9.87496 2.30841 9.87496H1.66675V10.0666C1.66675 10.525 2.04175 10.9 2.50008 10.9H10.1251C10.9751 10.9 11.6667 10.2083 11.6667 9.35829V2.43329C11.6667 2.00829 11.3251 1.66663 10.9001 1.66663Z" fill="#DBDBDB"/>
<path d="M1.72504 4.1499H1.60004H0.783374C0.466707 4.1499 0.208374 4.40824 0.208374 4.7249C0.208374 5.04157 0.466707 5.29157 0.783374 5.29157H1.54171H1.66671V4.74157C1.66671 4.54157 1.69171 4.34157 1.72504 4.1499Z" fill="#DBDBDB"/>
<path d="M1.54171 6.44165H0.783374C0.466707 6.44165 0.208374 6.69998 0.208374 7.01665C0.208374 7.33332 0.466707 7.58332 0.783374 7.58332H1.54171H1.66671V6.44165H1.54171Z" fill="#DBDBDB"/>
<path d="M1.54171 8.73328H0.783374C0.466707 8.73328 0.208374 8.99161 0.208374 9.30828C0.208374 9.62494 0.466707 9.87494 0.783374 9.87494H1.54171H1.66671V8.73328H1.54171Z" fill="#DBDBDB"/>
</svg>
